Coordinates
version=1
nRows=21
nColumns=33
inDegrees=yes

Units are S.I. units (second, meters, Newtons, ...)
Angles are in degrees.

endheader
time	ground_thorax_rot_x	ground_thorax_rot_y	ground_thorax_rot_z	ground_thorax_tx	ground_thorax_ty	ground_thorax_tz	clav_prot_r	clav_elev_r	scapula_abduction_r	scapula_elevation_r	scapula_upward_rot_r	scapula_winging_r	shoulder_elv_r	plane_of_elev_r	axial_rot_r	elbow_flexion_r	pro_sup_r	wrist_flex_r	wrist_dev_r	clav_prot_l	clav_elev_l	scapula_abduction_l	scapula_elevation_l	scapula_upward_rot_l	scapula_winging_l	shoulder_elv_l	plane_of_elev_l	axial_rot_l	elbow_flexion_l	pro_sup_l	wrist_flex_l	wrist_dev_l
      0.34000000	      1.36638741	     -1.66499755	      0.89104212	     -0.16111542	      0.98601393	     -0.00021923	     -7.37892717	      1.75701993	     -7.93182909	      6.03404411	      6.96884091	     -1.71870251	     41.59378718	    -39.69367949	     37.15126770	     74.75279419	      3.11017528	     32.59824480	    -12.76192478	     -7.28669087	     -2.55515302	     10.37383995	     -5.54025972	     -4.81999204	     -2.41718853	     39.38635321	    -39.93227124	     -6.79233502	     72.08458266	     16.70127773	     -9.59694900	    -24.99999983
      0.35000000	      1.36573786	     -1.67330259	      1.01518355	     -0.16114034	      0.98618477	     -0.00047635	     -7.38619295	      1.72709461	     -7.90747279	      5.98839445	      7.01569018	     -1.73012610	     41.60704988	    -39.61831325	     37.10428911	     74.78597088	      3.09933254	     32.59637009	    -12.76774354	     -7.28212843	     -2.57914104	     10.34787744	     -5.50654333	     -4.79189652	     -2.41073970	     39.40270111	    -39.87122715	     -6.79683567	     72.12544680	     16.68965144	     -9.59860420	    -24.99999983
      0.36000000	      1.19055097	     -1.64582150	      0.62445997	     -0.16094040	      0.98625802	     -0.00048598	     -7.45975136	      1.47062271	     -8.08994808	      5.85050543	      6.76361539	     -1.60876259	     41.24905442	    -39.16719668	     35.97588815	     74.95164521	      2.52349580	     31.96166166	    -12.85117348	     -7.20901264	     -2.81643798	     10.20679419	     -5.34360793	     -4.93262409	     -2.45463814	     39.92781867	    -39.70464799	     -6.81533357	     72.61151279	     15.81274299	     -9.41542954	    -24.99999983
      0.37000000	      1.18015611	     -1.64325315	      0.78236509	     -0.16095939	      0.98648940	     -0.00080319	     -7.45913160	      1.45474373	     -8.04676453	      5.81052392	      6.82867984	     -1.62912779	     41.28560377	    -39.08366211	     35.93990712	     74.98666689	      2.51510756	     31.96006455	    -12.85223502	     -7.20343065	     -2.84064998	     10.16960075	     -5.29981252	     -4.88002485	     -2.44274110	     39.96237426	    -39.62173024	     -6.81760025	     72.66032185	     15.80110224	     -9.41326262	    -24.99999983
      0.38000000	      1.18491591	     -1.64228914	      0.95331628	     -0.16100777	      0.98677080	     -0.00104588	     -7.45824788	      1.42854065	     -7.99603393	      5.75907882	      6.89975291	     -1.65087530	     41.31767821	    -38.97994299	     35.89690727	     75.03416250	      2.50428712	     31.95726775	    -12.85239387	     -7.19542695	     -2.86653127	     10.12423645	     -5.25053726	     -4.81811078	     -2.42796540	     40.00103685	    -39.52133910	     -6.82403516	     72.73184825	     15.78715701	     -9.40823278	    -24.99999983
      0.39000000	      1.22372574	     -1.67366197	      0.86740002	     -0.16137981	      0.98590645	     -0.00116024	     -7.05115060	      1.80507232	     -7.70240044	      6.33317969	      6.32992278	     -1.60960078	     41.25677079	    -38.25519788	     34.75528630	     75.76442364	      0.77131432	     29.01285786	    -11.44396590	     -7.06882986	     -2.87767107	     10.16189507	     -5.53636946	     -5.53232533	     -2.57052896	     40.91432892	    -38.89747728	     -7.11251805	     73.47472136	     12.73888103	     -6.02039718	    -24.99999983
      0.40000000	      1.21944700	     -1.68081353	      1.07917572	     -0.16135923	      0.98625882	     -0.00138118	     -7.05530571	      1.77640360	     -7.65440833	      6.27416988	      6.41254350	     -1.63184976	     41.29708583	    -38.14890228	     34.70764128	     75.80762846	      0.76463980	     29.01780410	    -11.44649856	     -7.06772899	     -2.91424476	     10.11741716	     -5.46500721	     -5.44216490	     -2.55586763	     40.97043281	    -38.77345053	     -7.09539345	     73.53854128	     12.73081770	     -6.02013184	    -24.99999983
      0.41000000	      1.20164093	     -1.66497944	      0.80623342	     -0.16141733	      0.98614491	     -0.00178410	     -7.03148112	      1.65597299	     -7.47497624	      6.09949430	      6.58003641	     -1.69265142	     41.33896655	    -37.77327976	     34.53687566	     75.97655646	      0.69253142	     28.94144660	    -11.39050836	     -7.03111747	     -2.99575815	      9.97221779	     -5.32590804	     -5.28809079	     -2.50967798	     41.05141678	    -38.37167214	     -7.13972998	     74.00127293	     12.65576137	     -5.83577813	    -24.99999983
      0.42000000	      0.97713966	     -1.64810148	      0.73760591	     -0.16130833	      0.98615212	     -0.00195171	     -6.97614694	      1.55244777	     -7.48194642	      6.10860547	      6.31492365	     -1.61533482	     41.03943600	    -37.27672403	     33.52498124	     76.27784564	     -0.58331711	     26.59528190	     -9.90289253	     -7.21590647	     -2.82056330	     10.29220433	     -5.42063387	     -5.13061490	     -2.50793558	     41.46873591	    -37.63451630	     -6.96737684	     74.33919388	     11.60614974	     -1.43898156	    -24.99999983
      0.43000000	      0.97515696	     -1.67463730	      0.73397182	     -0.16131604	      0.98630681	     -0.00213109	     -6.93576367	      1.47459595	     -7.30378560	      5.98351207	      6.45520018	     -1.67061814	     41.09629276	    -36.98712665	     33.46455878	     76.45801692	     -0.61030151	     26.57753392	     -9.86347303	     -7.18965591	     -2.93192355	     10.16574571	     -5.26299344	     -4.99825850	     -2.47939190	     41.54799627	    -37.32026613	     -6.89533715	     74.51440226	     11.58987991	     -1.31827628	    -24.97498079
      0.44000000	      0.97067307	     -1.66945678	      1.02632563	     -0.16125375	      0.98668821	     -0.00235838	     -6.93750154	      1.41866608	     -7.23125773	      5.89277551	      6.55732865	     -1.70042169	     41.12861985	    -36.82265232	     33.39517655	     76.51966805	     -0.62528346	     26.57225162	     -9.86233550	     -7.18710808	     -2.99881832	     10.10368999	     -5.15685545	     -4.89247160	     -2.46212379	     41.59661101	    -37.13273461	     -6.87756900	     74.60844730	     11.57979993	     -1.30305091	    -24.97250346
      0.45000000	      0.80746546	     -1.67643841	      0.72658953	     -0.16152698	      0.98629603	     -0.00258156	     -6.69797777	      1.52516309	     -6.95692972	      6.08357380	      6.32763057	     -1.70675670	     40.61182171	    -35.93888986	     32.00467356	     76.73347664	     -2.07719976	     23.71255767	     -8.47861662	     -7.14531793	     -2.83809554	     10.02961209	     -5.26528597	     -4.78645834	     -2.39720652	     41.73389368	    -36.03546109	     -6.30920218	     75.42765399	     11.32400739	      2.54761796	    -21.61214030
      0.46000000	      0.84599765	     -1.68890501	      0.56349540	     -0.16123630	      0.98664267	     -0.00294594	     -6.70705162	      1.27357793	     -6.81318393	      5.80200174	      6.45944692	     -1.73235723	     40.73092195	    -35.60264725	     31.60430576	     76.89735331	     -2.26919938	     23.30658941	     -8.18237817	     -7.20375288	     -3.18669736	     10.03071536	     -4.92221892	     -4.74865501	     -2.45719118	     41.78842806	    -35.49304710	     -5.87028356	     75.75395724	     11.36827388	      3.19223867	    -20.95777009
      0.47000000	      0.74979020	     -1.69350203	      0.70994055	     -0.16143215	      0.98631292	     -0.00308508	     -6.49621102	      1.42088432	     -6.54125198	      5.98306363	      6.34875918	     -1.77110711	     40.44689121	    -35.01900075	     30.79238144	     77.12328381	     -3.04137234	     21.36166454	     -7.02716920	     -7.07463849	     -3.08905623	      9.83983696	     -5.03494049	     -4.79353280	     -2.41129585	     42.11390982	    -34.81372650	     -5.74129196	     76.40420422	     11.59314576	      5.44088495	    -18.26808393
      0.48000000	      0.71078583	     -1.73112273	      0.63097178	     -0.16136619	      0.98640113	     -0.00332439	     -6.38795873	      1.30752404	     -6.28026656	      5.86566513	      6.38865950	     -1.81638275	     40.26328327	    -34.45257089	     29.99865061	     77.16280409	     -3.38922030	     20.15494967	     -6.22873999	     -7.03559282	     -3.28099121	      9.73274425	     -4.87073011	     -4.82769466	     -2.43306528	     42.33489334	    -34.10086294	     -5.42756524	     76.82131934	     11.72656727	      6.65315590	    -16.44373105
      0.49000000	      0.73291853	     -1.70665942	      0.77157255	     -0.16131653	      0.98690071	     -0.00371059	     -6.34549545	      1.09897686	     -6.06062145	      5.62546599	      6.51874114	     -1.85856594	     40.29330367	    -34.07596090	     29.77107111	     76.86771117	     -3.43936426	     19.98994652	     -6.18747448	     -6.97205359	     -3.52248557	      9.50798398	     -4.59458474	     -4.69968865	     -2.41347248	     42.38707277	    -33.62617630	     -5.45744842	     76.73188497	     11.74206646	      6.74122354	    -16.26728120
      0.50000000	      0.56967661	     -1.65633293	      0.73886346	     -0.16138472	      0.98640969	     -0.00383549	     -6.17947170	      1.35944738	     -5.88387096	      5.89220070	      6.45055406	     -1.90773568	     39.35496766	    -33.11231344	     27.96776010	     76.72425905	     -4.19292799	     17.43066558	     -4.71564324	     -6.89602030	     -3.35352908	      9.40146448	     -4.74247457	     -4.67022553	     -2.35474393	     42.55244723	    -32.35519252	     -5.16311083	     77.11609576	     11.77644987	      8.58652796	    -12.73926525
      0.51000000	      0.59369715	     -1.71242564	      0.78281071	     -0.16131564	      0.98677608	     -0.00409197	     -6.10991018	      1.08223881	     -5.56920015	      5.57481165	      6.61979710	     -1.97055367	     39.40989418	    -32.62993997	     27.75844230	     76.46418897	     -4.22774212	     17.25894829	     -4.64344791	     -6.80378408	     -3.66476820	      9.10600615	     -4.39976716	     -4.53624924	     -2.33603940	     42.64625473	    -31.83164199	     -5.14698341	     76.88575674	     11.79064822	      8.68034142	    -12.49542469
      0.52000000	      0.48312473	     -1.72466271	      0.74330835	     -0.16137682	      0.98639783	     -0.00430036	     -5.84257207	      1.17847138	     -5.23242965	      5.75052178	      6.40229359	     -1.99620060	     38.82561736	    -31.67003141	     25.98525128	     76.36415463	     -4.96993037	     14.35048249	     -2.82718106	     -6.72334899	     -3.69298477	      9.00990032	     -4.43448954	     -4.68127923	     -2.34959298	     42.85189742	    -30.49013097	     -4.57284179	     77.22880206	     11.63176767	     10.77828342	     -8.24891136
      0.53000000	      0.49815715	     -1.76694943	      0.82017901	     -0.16133099	      0.98667950	     -0.00457467	     -5.73981040	      0.88327311	     -4.86535678	      5.42560787	      6.55039536	     -2.06106282	     38.91195198	    -31.16622594	     25.83333411	     75.97551534	     -4.99724881	     14.17249606	     -2.76801305	     -6.60197557	     -4.04259698	      8.64754788	     -4.04898837	     -4.52668648	     -2.32501067	     42.97587161	    -29.93185080	     -4.61118922	     76.82564935	     11.65686187	     10.86883146	     -8.00505633
      0.54000000	      0.47000727	     -1.78756085	      0.80779150	     -0.16130049	      0.98714873	     -0.00480927	     -5.64921893	      0.51399627	     -4.53488487	      5.05854295	      6.63472107	     -2.09056237	     38.90566050	    -30.53984315	     25.46076104	     75.42441128	     -5.11439774	     13.81546918	     -2.67190810	     -6.51294321	     -4.46998820	      8.31611859	     -3.57862932	     -4.34178876	     -2.32413820	     43.10459967	    -29.21155653	     -4.49034892	     76.19646387	     11.68223322	     11.03912548	     -7.52817159
